<svg width="176" height="101" viewBox="0 0 176 101" fill="none" xmlns="http://www.w3.org/2000/svg">
<path d="M49.992 0.887993L51.656 0.759995H51.784C52.4667 0.759995 53.0213 0.887995 53.448 1.144C53.8747 1.57066 54.1307 1.912 54.216 2.168C54.472 2.59467 54.728 3.704 54.984 5.49599C57.8853 21.1973 61.6827 36.8133 66.376 52.344C68.5947 59.5973 70.6853 65.1013 72.648 68.856L73.288 70.136L76.744 66.808C82.12 61.6027 87.8373 55.6293 93.896 48.888L133.064 4.34399C134.6 2.63733 135.411 1.74133 135.496 1.656C136.349 1.05866 137.075 0.759995 137.672 0.759995C138.099 0.759995 138.44 0.930662 138.696 1.272C139.123 1.69866 139.379 2.16799 139.464 2.67999C139.976 3.96 139.976 5.45333 139.464 7.16L137.672 15.864C134.856 31.1387 132.765 46.6267 131.4 62.328C130.803 68.984 130.803 75.0853 131.4 80.632C131.485 82.5093 131.741 83.6613 132.168 84.088C132.595 84.5147 133.235 84.5147 134.088 84.088L135.112 83.576C136.989 82.7227 137.971 82.296 138.056 82.296C140.445 81.4427 142.109 81.272 143.048 81.784C144.328 82.4667 144.541 83.6187 143.688 85.24C143.091 86.52 141.896 87.7573 140.104 88.952C137.288 90.8293 134.088 92.408 130.504 93.688C128.627 94.2853 126.707 94.584 124.744 94.584H122.568L121.416 94.072C119.368 93.048 118.173 91.64 117.832 89.848C116.979 86.9467 116.723 81.272 117.064 72.824C117.661 62.4133 119.24 48.888 121.8 32.248C122.056 31.1387 122.184 30.5413 122.184 30.456L118.472 34.68L88.904 67.576C82.0773 74.9147 76.0613 80.888 70.856 85.496C70.344 85.9227 70.0027 86.1787 69.832 86.264C69.576 86.3493 69.1067 86.4773 68.424 86.648C67.912 86.648 67.4853 86.5627 67.144 86.392C66.5467 85.9653 65.864 85.112 65.096 83.832C62.1093 79.1387 59.5067 73.8907 57.288 68.088C54.1307 59.896 50.632 47.608 46.792 31.224L46.024 28.28L45.896 28.664C45.8107 29.0053 45.6827 29.432 45.512 29.944C44.488 34.6373 42.568 41.336 39.752 50.04C35.4 62.9253 31.2187 73.3787 27.208 81.4C22.4293 90.7867 17.9493 96.0347 13.768 97.144C13.1707 97.3147 12.36 97.4 11.336 97.4C9.62933 97.2293 8.09333 96.8453 6.728 96.248C4.25333 95.3093 2.46133 93.816 1.352 91.768C1.096 91.3413 0.925333 90.5733 0.84 89.464C0.84 87.928 1.05333 86.4347 1.48 84.984C2.67467 81.4853 4.21067 79.3093 6.088 78.456C6.42933 78.2853 6.81333 78.2 7.24 78.2C7.66667 78.2 8.05067 78.3707 8.392 78.712C9.33067 79.9067 10.2693 80.7173 11.208 81.144C12.6587 81.8267 13.9813 82.2533 15.176 82.424L16.456 82.552L17.096 82.296C19.0587 81.3573 22.088 75.896 26.184 65.912C31.304 53.1973 35.2293 41.208 37.96 29.944C39.9227 21.5813 41.2027 14.584 41.8 8.952L42.184 6.904C42.8667 4.77066 44.744 3.02133 47.816 1.656C48.4987 1.31466 49.224 1.05866 49.992 0.887993Z" fill="#7C91FF"/>
<path d="M98 28.4199C122 7.58657 168 2.91747 171.5 28.4192C175 53.9209 146 68.9207 123 56.9206" stroke="#7C91FF" stroke-width="7" stroke-linecap="round"/>
<path d="M27.64 97L30.056 85.576H32.072L33.176 94.904H33.24L38.312 85.576H40.504L38.136 97H36.696L38.136 90.216C38.2427 89.7467 38.3387 89.3093 38.424 88.904C38.52 88.4987 38.6053 88.1307 38.68 87.8C38.7653 87.4693 38.84 87.192 38.904 86.968H38.872L33.368 97H32.232L31.016 86.984H30.952C30.9307 87.1973 30.8933 87.4853 30.84 87.848C30.7867 88.2 30.7227 88.5787 30.648 88.984C30.584 89.3787 30.5147 89.7627 30.44 90.136L28.984 97H27.64ZM43.5411 97.16C43.0825 97.16 42.6771 97.0533 42.3251 96.84C41.9838 96.616 41.7118 96.2853 41.5091 95.848C41.3171 95.4107 41.2211 94.872 41.2211 94.232C41.2211 93.592 41.2851 92.9787 41.4131 92.392C41.5518 91.7947 41.7438 91.2453 41.9891 90.744C42.2345 90.2427 42.5278 89.8107 42.8691 89.448C43.2211 89.0747 43.6105 88.7867 44.0371 88.584C44.4745 88.3707 44.9385 88.264 45.4291 88.264C45.8025 88.264 46.1278 88.3333 46.4051 88.472C46.6931 88.6107 46.9331 88.792 47.1251 89.016C47.3171 89.24 47.4718 89.4853 47.5891 89.752H47.6691L48.1811 88.424H49.2531L47.4291 97H46.3091L46.5171 95.416H46.4531C46.2078 95.7253 45.9358 96.0133 45.6371 96.28C45.3385 96.5467 45.0131 96.76 44.6611 96.92C44.3198 97.08 43.9465 97.16 43.5411 97.16ZM44.0051 95.992C44.3998 95.992 44.7838 95.848 45.1571 95.56C45.5411 95.272 45.8878 94.8827 46.1971 94.392C46.5065 93.9013 46.7411 93.352 46.9011 92.744C46.9865 92.4347 47.0398 92.152 47.0611 91.896C47.0931 91.6293 47.1091 91.384 47.1091 91.16C47.1091 90.6587 46.9705 90.248 46.6931 89.928C46.4158 89.608 46.0425 89.448 45.5731 89.448C45.2425 89.448 44.9278 89.5333 44.6291 89.704C44.3411 89.8747 44.0745 90.1147 43.8291 90.424C43.5838 90.7227 43.3758 91.0747 43.2051 91.48C43.0345 91.8853 42.9011 92.328 42.8051 92.808C42.7091 93.2773 42.6611 93.7627 42.6611 94.264C42.6611 94.84 42.7785 95.272 43.0131 95.56C43.2478 95.848 43.5785 95.992 44.0051 95.992ZM49.9949 97L51.8189 88.424H52.9709L52.7949 90.008H52.8749C53.0989 89.7093 53.3335 89.432 53.5789 89.176C53.8242 88.9093 54.1015 88.6907 54.4109 88.52C54.7202 88.3493 55.0775 88.264 55.4829 88.264C55.6322 88.264 55.7869 88.2747 55.9469 88.296C56.1175 88.3067 56.2722 88.3333 56.4109 88.376L56.1069 89.64C55.9682 89.608 55.8295 89.5867 55.6909 89.576C55.5629 89.5547 55.4295 89.544 55.2909 89.544C54.8962 89.544 54.5282 89.6507 54.1869 89.864C53.8562 90.0667 53.5575 90.3387 53.2909 90.68C53.0349 91.0213 52.8162 91.4 52.6349 91.816C52.4535 92.232 52.3202 92.6533 52.2349 93.08L51.4029 97H49.9949ZM56.3539 97L58.9299 84.84H60.3539L59.3139 89.672C59.1325 90.5253 58.9725 91.1867 58.8339 91.656C58.7059 92.1147 58.6152 92.4187 58.5619 92.568H58.5939L62.6579 88.424H64.3219L60.6419 92.104L62.9299 97H61.3779L59.5699 92.984L58.4179 93.896L57.7779 97H56.3539ZM67.4033 97.16C66.7419 97.16 66.1766 97.032 65.7073 96.776C65.2486 96.5093 64.8966 96.136 64.6513 95.656C64.4166 95.1653 64.2993 94.5893 64.2993 93.928C64.2993 93.2453 64.3953 92.5733 64.5872 91.912C64.7899 91.24 65.0779 90.632 65.4513 90.088C65.8246 89.5333 66.2726 89.0907 66.7953 88.76C67.3286 88.4293 67.9259 88.264 68.5873 88.264C69.3979 88.264 70.0059 88.44 70.4113 88.792C70.8273 89.144 71.0353 89.6347 71.0353 90.264C71.0353 90.68 70.9393 91.0747 70.7473 91.448C70.5553 91.8107 70.2566 92.1307 69.8513 92.408C69.4459 92.6853 68.9286 92.904 68.2993 93.064C67.6699 93.2133 66.9126 93.288 66.0273 93.288H65.7553C65.7446 93.384 65.7339 93.4853 65.7233 93.592C65.7233 93.6987 65.7233 93.7947 65.7233 93.88C65.7233 94.5307 65.8833 95.048 66.2033 95.432C66.5233 95.8053 67.0086 95.992 67.6593 95.992C68.0646 95.992 68.4486 95.9333 68.8113 95.816C69.1739 95.6987 69.5686 95.5387 69.9953 95.336V96.536C69.5899 96.7173 69.1899 96.8667 68.7953 96.984C68.4113 97.1013 67.9473 97.16 67.4033 97.16ZM66.0753 92.152C66.7153 92.152 67.3073 92.0987 67.8513 91.992C68.3953 91.8747 68.8326 91.688 69.1633 91.432C69.4939 91.1653 69.6593 90.8133 69.6593 90.376C69.6593 90.0987 69.5633 89.8747 69.3713 89.704C69.1899 89.5227 68.9019 89.432 68.5073 89.432C68.1659 89.432 67.8299 89.5387 67.4993 89.752C67.1686 89.9653 66.8699 90.2747 66.6033 90.68C66.3366 91.0853 66.1233 91.576 65.9633 92.152H66.0753ZM74.4756 97.16C73.8996 97.16 73.4143 97.0213 73.0196 96.744C72.625 96.4667 72.4276 95.9813 72.4276 95.288C72.4276 95.128 72.4383 94.952 72.4596 94.76C72.4916 94.5573 72.529 94.3547 72.5716 94.152L73.5476 89.496H72.2196L72.3476 88.856L73.7876 88.248L74.7796 86.472H75.6116L75.1796 88.424H77.3396L77.1156 89.496H74.9716L73.9796 94.168C73.9476 94.3067 73.9156 94.4667 73.8836 94.648C73.8516 94.8187 73.8356 94.9787 73.8356 95.128C73.8356 95.3733 73.8996 95.5813 74.0276 95.752C74.1663 95.9227 74.385 96.008 74.6836 96.008C74.8756 96.008 75.0623 95.992 75.2436 95.96C75.425 95.9173 75.617 95.864 75.8196 95.8V96.872C75.6916 96.936 75.4943 97 75.2276 97.064C74.961 97.128 74.7103 97.16 74.4756 97.16ZM76.4761 100.84L79.1001 88.424H80.2521L80.0601 90.024H80.1241C80.3801 89.704 80.6521 89.416 80.9401 89.16C81.2281 88.8933 81.5428 88.68 81.8841 88.52C82.2255 88.36 82.5935 88.28 82.9881 88.28C83.4468 88.28 83.8468 88.392 84.1881 88.616C84.5401 88.8293 84.8121 89.1547 85.0041 89.592C85.2068 90.0187 85.3081 90.5573 85.3081 91.208C85.3081 91.8373 85.2441 92.4453 85.1161 93.032C84.9988 93.6187 84.8175 94.1627 84.5721 94.664C84.3375 95.1547 84.0495 95.592 83.7081 95.976C83.3775 96.3493 82.9935 96.6427 82.5561 96.856C82.1188 97.0587 81.6441 97.16 81.1321 97.16C80.7481 97.16 80.4121 97.0907 80.1241 96.952C79.8468 96.8133 79.6121 96.632 79.4201 96.408C79.2281 96.184 79.0681 95.944 78.9401 95.688H78.8601C78.8495 95.8587 78.8228 96.0987 78.7801 96.408C78.7375 96.7067 78.6948 96.952 78.6521 97.144L77.8681 100.84H76.4761ZM81.0201 95.992C81.3615 95.992 81.6761 95.9067 81.9641 95.736C82.2628 95.5547 82.5295 95.3093 82.7641 95C82.9988 94.68 83.1961 94.3173 83.3561 93.912C83.5268 93.496 83.6548 93.0587 83.7401 92.6C83.8255 92.1307 83.8681 91.656 83.8681 91.176C83.8681 90.6 83.7508 90.168 83.5161 89.88C83.2921 89.592 82.9561 89.448 82.5081 89.448C82.2735 89.448 82.0335 89.5067 81.7881 89.624C81.5428 89.7413 81.3028 89.912 81.0681 90.136C80.8335 90.3493 80.6148 90.6053 80.4121 90.904C80.2095 91.2027 80.0281 91.5333 79.8681 91.896C79.7188 92.248 79.6015 92.6267 79.5161 93.032C79.4308 93.4267 79.3881 93.8373 79.3881 94.264C79.3881 94.776 79.5215 95.192 79.7881 95.512C80.0548 95.832 80.4655 95.992 81.0201 95.992ZM86.5258 97L89.1178 84.84H90.5258L87.9338 97H86.5258ZM93.3068 97.16C92.8481 97.16 92.4428 97.0533 92.0908 96.84C91.7494 96.616 91.4774 96.2853 91.2747 95.848C91.0828 95.4107 90.9868 94.872 90.9868 94.232C90.9868 93.592 91.0508 92.9787 91.1788 92.392C91.3174 91.7947 91.5094 91.2453 91.7548 90.744C92.0001 90.2427 92.2934 89.8107 92.6348 89.448C92.9868 89.0747 93.3761 88.7867 93.8028 88.584C94.2401 88.3707 94.7041 88.264 95.1948 88.264C95.5681 88.264 95.8934 88.3333 96.1708 88.472C96.4588 88.6107 96.6988 88.792 96.8908 89.016C97.0828 89.24 97.2374 89.4853 97.3548 89.752H97.4348L97.9468 88.424H99.0188L97.1948 97H96.0748L96.2828 95.416H96.2188C95.9734 95.7253 95.7014 96.0133 95.4028 96.28C95.1041 96.5467 94.7788 96.76 94.4268 96.92C94.0854 97.08 93.7121 97.16 93.3068 97.16ZM93.7708 95.992C94.1654 95.992 94.5494 95.848 94.9227 95.56C95.3068 95.272 95.6534 94.8827 95.9628 94.392C96.2721 93.9013 96.5068 93.352 96.6668 92.744C96.7521 92.4347 96.8054 92.152 96.8268 91.896C96.8588 91.6293 96.8748 91.384 96.8748 91.16C96.8748 90.6587 96.7361 90.248 96.4588 89.928C96.1814 89.608 95.8081 89.448 95.3388 89.448C95.0081 89.448 94.6934 89.5333 94.3948 89.704C94.1068 89.8747 93.8401 90.1147 93.5948 90.424C93.3494 90.7227 93.1414 91.0747 92.9708 91.48C92.8001 91.8853 92.6668 92.328 92.5707 92.808C92.4748 93.2773 92.4268 93.7627 92.4268 94.264C92.4268 94.84 92.5441 95.272 92.7788 95.56C93.0134 95.848 93.3441 95.992 93.7708 95.992ZM103.265 97.16C102.635 97.16 102.081 97.0427 101.601 96.808C101.121 96.5733 100.747 96.2213 100.481 95.752C100.214 95.272 100.081 94.6747 100.081 93.96C100.081 93.3413 100.145 92.7547 100.273 92.2C100.411 91.6347 100.609 91.112 100.865 90.632C101.121 90.152 101.43 89.736 101.793 89.384C102.155 89.032 102.566 88.76 103.025 88.568C103.494 88.3653 104.006 88.264 104.561 88.264C104.934 88.264 105.307 88.3013 105.681 88.376C106.054 88.4507 106.39 88.552 106.689 88.68L106.289 89.848C106.075 89.752 105.819 89.6613 105.521 89.576C105.233 89.4907 104.918 89.448 104.577 89.448C104.214 89.448 103.873 89.528 103.553 89.688C103.243 89.8373 102.961 90.0507 102.705 90.328C102.459 90.6053 102.246 90.936 102.065 91.32C101.894 91.6933 101.761 92.104 101.664 92.552C101.569 92.9893 101.521 93.4533 101.521 93.944C101.521 94.3707 101.595 94.7387 101.745 95.048C101.894 95.3573 102.107 95.592 102.385 95.752C102.673 95.912 103.014 95.992 103.409 95.992C103.782 95.992 104.134 95.9387 104.465 95.832C104.806 95.7253 105.142 95.6027 105.473 95.464V96.648C105.174 96.7973 104.838 96.92 104.465 97.016C104.102 97.112 103.702 97.16 103.265 97.16ZM110.435 97.16C109.773 97.16 109.208 97.032 108.739 96.776C108.28 96.5093 107.928 96.136 107.683 95.656C107.448 95.1653 107.331 94.5893 107.331 93.928C107.331 93.2453 107.427 92.5733 107.618 91.912C107.821 91.24 108.109 90.632 108.483 90.088C108.856 89.5333 109.304 89.0907 109.827 88.76C110.36 88.4293 110.957 88.264 111.619 88.264C112.429 88.264 113.037 88.44 113.443 88.792C113.859 89.144 114.067 89.6347 114.067 90.264C114.067 90.68 113.971 91.0747 113.779 91.448C113.587 91.8107 113.288 92.1307 112.883 92.408C112.477 92.6853 111.96 92.904 111.331 93.064C110.701 93.2133 109.944 93.288 109.059 93.288H108.787C108.776 93.384 108.765 93.4853 108.755 93.592C108.755 93.6987 108.755 93.7947 108.755 93.88C108.755 94.5307 108.915 95.048 109.235 95.432C109.555 95.8053 110.04 95.992 110.691 95.992C111.096 95.992 111.48 95.9333 111.843 95.816C112.205 95.6987 112.6 95.5387 113.027 95.336V96.536C112.621 96.7173 112.221 96.8667 111.827 96.984C111.443 97.1013 110.979 97.16 110.435 97.16ZM109.107 92.152C109.747 92.152 110.339 92.0987 110.883 91.992C111.427 91.8747 111.864 91.688 112.195 91.432C112.525 91.1653 112.691 90.8133 112.691 90.376C112.691 90.0987 112.595 89.8747 112.403 89.704C112.221 89.5227 111.933 89.432 111.539 89.432C111.197 89.432 110.861 89.5387 110.531 89.752C110.2 89.9653 109.901 90.2747 109.635 90.68C109.368 91.0853 109.155 91.576 108.995 92.152H109.107Z" fill="#7C91FF"/>
</svg>
