<?xml version="1.0" encoding="utf-8"?>
<!-- Generator: Adobe Illustrator 27.5.0, SVG Export Plug-In . SVG Version: 6.00 Build 0)  -->
<svg version="1.1" xmlns="http://www.w3.org/2000/svg" xmlns:xlink="http://www.w3.org/1999/xlink" x="0px" y="0px"
	 viewBox="0 0 500 500" style="enable-background:new 0 0 500 500;" xml:space="preserve">
<g id="BACKGROUND">
	<rect style="fill:#FFFFFF;" width="500" height="500"/>
</g>
<g id="OBJECTS">
	<g>
		<text transform="matrix(1 0 0 1 126.8374 378.7165)"><tspan x="0" y="0" style="fill:#0F283F; font-family:'Raleway-Black'; font-size:28.3887px; letter-spacing:3;">SUPER</tspan><tspan x="109.579" y="0" style="fill:#0F283F; font-family:'Raleway-Bold'; font-size:28.3887px; letter-spacing:3;">market</tspan></text>
		
			<text transform="matrix(1 0 0 1 176.7394 403.4021)" style="fill:#0F283F; font-family:'Raleway-Regular'; font-size:17px; letter-spacing:2;">slogan here</text>
		<g>
			
				<radialGradient id="SVGID_1_" cx="254.8416" cy="334.5617" r="70.3102" gradientTransform="matrix(1 0 0 0.105 0 287.2484)" gradientUnits="userSpaceOnUse">
				<stop  offset="2.477800e-04" style="stop-color:#000000"/>
				<stop  offset="1" style="stop-color:#FFFFFF;stop-opacity:0"/>
			</radialGradient>
			<ellipse style="opacity:0.5;fill:url(#SVGID_1_);" cx="254.842" cy="322.365" rx="84.666" ry="9.033"/>
			<g>
				
					<linearGradient id="SVGID_00000003792500351288951690000005774006464737120167_" gradientUnits="userSpaceOnUse" x1="197.8139" y1="80.1567" x2="257.4765" y2="176.3293" gradientTransform="matrix(0.9877 -0.1565 0.1565 0.9877 -28.6877 41.6722)">
					<stop  offset="4.955700e-04" style="stop-color:#00945C"/>
					<stop  offset="1" style="stop-color:#6EFFA9"/>
				</linearGradient>
				<path style="fill:url(#SVGID_00000003792500351288951690000005774006464737120167_);" d="M264.561,165.754
					c-80.52,11.836-102.542-64.792-102.542-64.792c2.281-0.554,4.502-1.047,6.685-1.454c58.14-11.226,81.747,24.986,90.746,48.234
					C263.436,158.015,264.561,165.754,264.561,165.754z"/>
				
					<linearGradient id="SVGID_00000029765770517706937060000013808681793289731484_" gradientUnits="userSpaceOnUse" x1="280.2321" y1="169.3532" x2="324.4842" y2="114.6528" gradientTransform="matrix(0.9877 -0.1565 0.1565 0.9877 -28.6877 41.6722)">
					<stop  offset="2.477800e-04" style="stop-color:#006994"/>
					<stop  offset="1" style="stop-color:#6EFFA9"/>
				</linearGradient>
				<path style="fill:url(#SVGID_00000029765770517706937060000013808681793289731484_);" d="M322.265,92.157
					c0.424,3.446,0.623,6.746,0.626,9.894c0.089,49.384-48.513,62.147-48.513,62.147C260.198,99.743,322.265,92.157,322.265,92.157z
					"/>
				
					<linearGradient id="SVGID_00000072969584717712257350000007699978962877007005_" gradientUnits="userSpaceOnUse" x1="190.3333" y1="278.2498" x2="335.3749" y2="159.0206" gradientTransform="matrix(0.9877 -0.1565 0.1565 0.9877 -28.6877 41.6722)">
					<stop  offset="0" style="stop-color:#FD00FF"/>
					<stop  offset="1" style="stop-color:#FBB216"/>
				</linearGradient>
				<path style="fill:url(#SVGID_00000072969584717712257350000007699978962877007005_);" d="M351.998,160.457
					c-1.494-1.325-3.497-1.898-5.476-1.585l-155.777,24.681l-2.113-7.167c-0.951-3.236-4.148-5.269-7.494-4.738l-29.771,4.717
					c-3.659,0.58-6.149,4.025-5.57,7.684c0.58,3.659,4.013,6.166,7.672,5.586l23.948-3.794l2.065,7.044
					c0.028,0.083,0.053,0.152,0.081,0.235l22.301,75.997c0.014-0.002,0.014-0.002,0.016,0.012c0,0,0,0,0.002,0.014l7.866,26.339
					c0.965,3.233,4.158,5.238,7.489,4.71l14.779-2.341c-0.585,2.574-0.708,5.294-0.273,8.042
					c1.085,6.848,5.342,12.435,11.036,15.489c3.939,2.105,8.591,3.003,13.361,2.247c11.618-1.841,19.574-12.792,17.734-24.411
					c-0.435-2.748-1.408-5.294-2.76-7.561l29.43-4.663c-0.585,2.574-0.708,5.294-0.273,8.042
					c1.841,11.618,12.793,19.574,24.396,17.736c11.618-1.841,19.574-12.793,17.734-24.411c-0.435-2.748-1.408-5.294-2.76-7.561
					l6.806-1.078c3.659-0.58,6.166-4.013,5.584-7.686c-0.58-3.659-4.025-6.149-7.684-5.569l-123.415,19.553l-4-13.363l129.579-20.53
					c3.189-0.505,5.562-3.216,5.647-6.456l2.127-79.984C354.332,163.677,353.504,161.765,351.998,160.457z M320.092,283.895
					c4.314-0.684,8.371,2.264,9.053,6.564c0.684,4.314-2.264,8.372-6.578,9.055c-4.3,0.681-8.357-2.266-9.041-6.58
					C312.844,288.633,315.792,284.576,320.092,283.895z M249.695,295.296c0.587-0.254,1.215-0.441,1.87-0.544
					c4.314-0.684,8.372,2.264,9.053,6.564c0.684,4.314-2.264,8.371-6.578,9.055c-3.061,0.485-6.006-0.873-7.681-3.249
					c-0.692-0.956-1.164-2.092-1.36-3.331C244.421,300.145,246.442,296.687,249.695,295.296z M282.63,232.339
					c-0.671,0.646-1.997,1.119-3.948,1.428c-1.766,0.28-3.558,0.389-5.352,0.308c-0.794-0.035-1.592-0.098-2.397-0.204
					c-1.148-0.154-3.682-0.759-6.319-1.465c-4.498-1.214-9.144,1.332-10.526,5.784c-0.406,1.305-0.488,2.632-0.287,3.899
					c0.537,3.389,3.102,6.31,6.7,7.097c2.269,0.502,4.316,0.893,5.312,1.012c0.059,0.005,0.119,0.011,0.178,0.016
					c1.617,0.167,3.238,0.261,4.835,0.299l-57.735,9.147l-18.539-63.121l67.061-10.625c-0.464,0.205-0.928,0.41-1.361,0.624
					c-2.768,1.416-5.124,3.22-7.099,5.401c-1.973,2.195-3.389,4.77-4.264,7.725c-0.886,2.972-1.038,6.251-0.468,9.853
					c0.379,2.392,1.04,4.447,1.97,6.168c0.932,1.735,2.188,3.215,3.754,4.441c1.566,1.226,3.492,2.234,5.751,3.044
					c2.257,0.795,4.901,1.457,7.919,1.986c2.071,0.358,4.014,0.648,5.828,0.857c1.236,0.154,2.398,0.306,3.447,0.476
					c0.495,0.082,0.961,0.169,1.413,0.258c1.432,0.284,2.573,0.672,3.429,1.193c0.87,0.519,1.379,1.241,1.526,2.167
					C283.594,230.96,283.318,231.704,282.63,232.339z M338.884,239.729l-49.335,7.816c0.069-0.026,0.126-0.035,0.181-0.058
					c2.863-1.183,5.331-2.742,7.442-4.711c2.096-1.967,3.654-4.388,4.673-7.264c1.016-2.89,1.207-6.292,0.587-10.208
					c-0.483-3.047-1.351-5.58-2.601-7.572c-1.264-1.989-2.862-3.604-4.808-4.828c-1.945-1.224-4.217-2.207-6.811-2.92
					c-0.627-0.178-1.28-0.337-1.932-0.496c-2.063-0.491-4.275-0.913-6.664-1.25c-1.988-0.298-3.766-0.556-5.329-0.747
					c-1.577-0.188-2.914-0.429-4.011-0.722c-1.128-0.303-1.99-0.677-2.633-1.145c-0.641-0.453-1.024-1.122-1.16-1.976
					c-0.185-1.168,0.156-2.054,1.031-2.703c0.863-0.633,2.092-1.076,3.686-1.328c1.951-0.309,4.008-0.314,6.16,0.002
					c0.869,0.14,2.671,0.555,4.649,1.059c4.214,1.084,8.538-1.294,9.914-5.409c0.435-1.309,0.528-2.652,0.328-3.92
					c-0.507-3.204-2.874-5.981-6.271-6.786c-1.199-0.292-2.226-0.508-2.827-0.617c-1.754-0.291-3.549-0.474-5.377-0.593
					l62.875-9.962L338.884,239.729z"/>
				
					<linearGradient id="SVGID_00000114052930533003128310000017646462846896459199_" gradientUnits="userSpaceOnUse" x1="242.6862" y1="208.6054" x2="331.2104" y2="280.484" gradientTransform="matrix(0.9877 -0.1565 0.1565 0.9877 -28.6877 41.6722)">
					<stop  offset="2.477800e-04" style="stop-color:#FFFFFF"/>
					<stop  offset="1" style="stop-color:#FFFFFF;stop-opacity:0"/>
				</linearGradient>
				<path style="fill:url(#SVGID_00000114052930533003128310000017646462846896459199_);" d="M344.346,266.464l-89.998,14.259
					c-1.614,4.736-3.151,9.592-4.653,14.574c0.587-0.254,1.215-0.441,1.87-0.544c4.314-0.684,8.372,2.264,9.053,6.564
					c0.684,4.314-2.264,8.371-6.578,9.055c-3.061,0.485-6.006-0.873-7.681-3.249c-1.263,4.652-2.45,9.408-3.579,14.258
					c3.939,2.105,8.591,3.003,13.361,2.247c11.618-1.841,19.574-12.792,17.734-24.411c-0.435-2.748-1.408-5.294-2.76-7.561
					l29.43-4.663c-0.585,2.574-0.708,5.294-0.273,8.042c1.841,11.618,12.793,19.574,24.396,17.736
					c11.618-1.841,19.574-12.793,17.734-24.411c-0.435-2.748-1.408-5.294-2.76-7.561l6.806-1.078
					c3.659-0.58,6.166-4.013,5.584-7.686C351.45,268.374,348.005,265.884,344.346,266.464z M322.566,299.513
					c-4.3,0.681-8.357-2.266-9.041-6.58c-0.681-4.3,2.266-8.357,6.566-9.039c4.314-0.684,8.371,2.264,9.053,6.564
					C329.828,294.773,326.88,298.83,322.566,299.513z M351.998,160.457c-1.494-1.325-3.497-1.898-5.476-1.585l-28.704,4.548
					c-3.717,4.544-7.716,9.702-11.853,15.466l34.684-5.495l-1.764,66.338l-49.335,7.816c0.069-0.026,0.126-0.035,0.181-0.058
					c2.863-1.183,5.331-2.742,7.442-4.711c2.096-1.967,3.654-4.388,4.673-7.264c1.016-2.89,1.207-6.292,0.587-10.208
					c-0.483-3.047-1.351-5.58-2.601-7.572c-1.264-1.989-2.862-3.604-4.808-4.828c-1.945-1.224-4.217-2.207-6.811-2.92
					c-0.627-0.178-1.28-0.337-1.932-0.496c-3.077,5.362-6.163,11.033-9.187,17c0.495,0.082,0.961,0.169,1.413,0.258
					c1.432,0.284,2.573,0.672,3.429,1.193c0.87,0.519,1.379,1.241,1.526,2.167c0.135,0.854-0.141,1.599-0.829,2.233
					c-0.671,0.646-1.997,1.119-3.948,1.428c-1.766,0.28-3.558,0.389-5.352,0.308c-2.494,5.168-4.941,10.547-7.339,16.138
					c-0.159,0.376-0.331,0.768-0.49,1.143c-1.986,4.693-3.935,9.527-5.842,14.529l86.851-13.76c3.189-0.505,5.562-3.216,5.647-6.456
					l2.127-79.984C354.332,163.677,353.504,161.765,351.998,160.457z"/>
				
					<linearGradient id="SVGID_00000013184013491905127560000012570187665974448293_" gradientUnits="userSpaceOnUse" x1="263.7423" y1="149.9678" x2="207.7752" y2="100.6151" gradientTransform="matrix(0.9877 -0.1565 0.1565 0.9877 -28.6877 41.6722)">
					<stop  offset="2.477800e-04" style="stop-color:#FFFFFF"/>
					<stop  offset="1" style="stop-color:#FFFFFF;stop-opacity:0"/>
				</linearGradient>
				<path style="fill:url(#SVGID_00000013184013491905127560000012570187665974448293_);" d="M259.449,147.742
					c-61.632,6.95-83.981-31.415-90.746-48.234C226.843,88.282,250.451,124.494,259.449,147.742z"/>
				
					<linearGradient id="SVGID_00000008138961433482589410000006451477002067480993_" gradientUnits="userSpaceOnUse" x1="337.3806" y1="112.4739" x2="282.4433" y2="172.0867" gradientTransform="matrix(0.9877 -0.1565 0.1565 0.9877 -28.6877 41.6722)">
					<stop  offset="2.477800e-04" style="stop-color:#FFFFFF"/>
					<stop  offset="1" style="stop-color:#FFFFFF;stop-opacity:0"/>
				</linearGradient>
				<path style="fill:url(#SVGID_00000008138961433482589410000006451477002067480993_);" d="M322.891,102.051
					c0.089,49.384-48.513,62.147-48.513,62.147S275.512,121.89,322.891,102.051z"/>
			</g>
		</g>
	</g>
</g>
</svg>
